<svg xmlns="http://www.w3.org/2000/svg" width="1920" height="1080" viewBox="0 0 1920 1080">
  <rect width="1920" height="1080" fill="#0d1117"/>
  <!-- Title bar -->
  <rect width="1920" height="40" fill="#161b22"/>
  <circle cx="30" cy="20" r="8" fill="#ff5f56"/>
  <circle cx="55" cy="20" r="8" fill="#ffbd2e"/>
  <circle cx="80" cy="20" r="8" fill="#27c93f"/>
  <text x="960" y="27" fill="#8b949e" font-family="monospace" font-size="14" text-anchor="middle">Settings — Connexio</text>
  
  <!-- Settings layout -->
  <rect width="280" y="40" height="1040" fill="#161b22"/>
  <rect width="280" y="40" height="1" fill="#30363d"/>
  
  <!-- Settings sections -->
  <text x="24" y="80" fill="#f0f6fc" font-family="sans-serif" font-size="14" font-weight="600">SETTINGS</text>
  
  <!-- Settings items -->
  <rect x="16" y="100" width="248" height="44" rx="8" fill="#21262d"/>
  <text x="48" y="129" fill="#c9d1d9" font-family="sans-serif" font-size="14">General</text>
  
  <rect x="16" y="152" width="248" height="44" rx="8" fill="transparent"/>
  <text x="48" y="181" fill="#c9d1d9" font-family="sans-serif" font-size="14">Appearance</text>
  
  <rect x="16" y="204" width="248" height="44" rx="8" fill="transparent"/>
  <text x="48" y="233" fill="#c9d1d9" font-family="sans-serif" font-size="14">Keyboard Shortcuts</text>
  
  <rect x="16" y="256" width="248" height="44" rx="8" fill="transparent"/>
  <text x="48" y="285" fill="#c9d1d9" font-family="sans-serif" font-size="14">Shell Integration</text>
  
  <rect x="16" y="308" width="248" height="44" rx="8" fill="transparent"/>
  <text x="48" y="337" fill="#c9d1d9" font-family="sans-serif" font-size="14">Terminal Profile</text>
  
  <!-- Settings content -->
  <rect x="296" y="64" width="1608" height="992" fill="#0d1117"/>
  
  <text x="328" y="120" fill="#f0f6fc" font-family="sans-serif" font-size="24" font-weight="600">General Settings</text>
  
  <!-- Setting rows -->
  <rect x="328" y="160" width="1544" height="60" rx="8" fill="#161b22"/>
  <text x="360" y="198" fill="#c9d1d9" font-family="sans-serif" font-size="15">Startup Behavior</text>
  <text x="360" y="218" fill="#8b949e" font-family="sans-serif" font-size="13">Choose what happens when Connexio starts</text>
  <rect x="1320" y="175" width="120" height="36" rx="6" fill="#21262d"/>
  <text x="1350" y="200" fill="#c9d1d9" font-family="sans-serif" font-size="13">Restore</text>
  
  <rect x="328" y="236" width="1544" height="60" rx="8" fill="#161b22"/>
  <text x="360" y="274" fill="#c9d1d9" font-family="sans-serif" font-size="15">Default Shell</text>
  <text x="360" y="294" fill="#8b949e" font-family="sans-serif" font-size="13">Select your preferred shell</text>
  <rect x="1320" y="251" width="160" height="36" rx="6" fill="#21262d"/>
  <text x="1350" y="276" fill="#c9d1d9" font-family="sans-serif" font-size="13">Zsh ▾</text>
  
  <rect x="328" y="312" width="1544" height="60" rx="8" fill="#161b22"/>
  <text x="360" y="350" fill="#c9d1d9" font-family="sans-serif" font-size="15">Terminal Font</text>
  <text x="360" y="370" fill="#8b949e" font-family="sans-serif" font-size="13">JetBrains Mono, 14px</text>
  <rect x="1320" y="327" width="100" height="36" rx="6" fill="#21262d"/>
  <text x="1345" y="352" fill="#c9d1d9" font-family="sans-serif" font-size="13">Change</text>
  
  <!-- Placeholder text -->
  <text x="1100" y="700" fill="#484f58" font-family="sans-serif" font-size="24" text-anchor="middle">SETTINGS PAGE</text>
  <text x="1100" y="740" fill="#484f58" font-family="sans-serif" font-size="16" text-anchor="middle">Replace this placeholder with your actual screenshot</text>
</svg>
